<svg width="200" height="70" viewBox="0 0 200 70" fill="none" xmlns="http://www.w3.org/2000/svg">
<g clip-path="url(#clip0_309_4465)">
<path d="M2.22 5H5.37L18.15 21.29V5H20.79V26H19.23L4.86 7.73V26H2.22V5ZM29.898 26.3C28.598 26.3 27.628 25.94 26.988 25.22C26.348 24.5 26.028 23.39 26.028 21.89V12.53H23.388L23.808 11.3H26.058L27.138 7.16H28.788V11.3H32.898L32.508 12.53H28.788V22.31C28.788 24.13 29.468 25.04 30.828 25.04C31.548 25.04 32.248 24.85 32.928 24.47V25.76C32.088 26.12 31.078 26.3 29.898 26.3ZM42.5107 26.3C40.4507 26.3 38.7807 25.9 37.5007 25.1C36.2407 24.3 35.4807 23.18 35.2207 21.74H37.5007C37.6607 22.78 38.1807 23.6 39.0607 24.2C39.9607 24.78 41.1407 25.07 42.6007 25.07C43.9807 25.07 45.0807 24.79 45.9007 24.23C46.7407 23.67 47.1607 22.93 47.1607 22.01C47.1607 21.27 46.8007 20.69 46.0807 20.27C45.3607 19.83 44.1607 19.47 42.4807 19.19C40.8007 18.91 39.4607 18.6 38.4607 18.26C37.4807 17.9 36.7707 17.47 36.3307 16.97C35.8907 16.45 35.6707 15.81 35.6707 15.05C35.6707 13.81 36.2607 12.83 37.4407 12.11C38.6407 11.37 40.3107 11 42.4507 11C44.5307 11 46.2107 11.4 47.4907 12.2C48.7907 12.98 49.5407 14.08 49.7407 15.5H47.4607C47.2807 14.48 46.7607 13.68 45.9007 13.1C45.0407 12.52 43.9507 12.23 42.6307 12.23C41.3707 12.23 40.3507 12.46 39.5707 12.92C38.8107 13.36 38.4307 13.96 38.4307 14.72C38.4307 15.18 38.5607 15.55 38.8207 15.83C39.0807 16.11 39.5507 16.36 40.2307 16.58C40.9307 16.8 41.9607 17.03 43.3207 17.27C45.6407 17.67 47.3207 18.23 48.3607 18.95C49.4007 19.65 49.9207 20.61 49.9207 21.83C49.9207 23.23 49.2607 24.33 47.9407 25.13C46.6407 25.91 44.8307 26.3 42.5107 26.3ZM59.426 26.3C57.466 26.3 55.926 25.8 54.806 24.8C53.706 23.78 53.156 22.38 53.156 20.6V11.3H55.916V20.9C55.916 22.24 56.266 23.27 56.966 23.99C57.686 24.71 58.706 25.07 60.026 25.07C61.546 25.07 62.766 24.58 63.686 23.6C64.626 22.6 65.096 21.29 65.096 19.67V11.3H67.856V26H65.096V23.42C64.616 24.32 63.876 25.03 62.876 25.55C61.876 26.05 60.726 26.3 59.426 26.3ZM80.6416 26.3C79.3016 26.3 78.1316 26.04 77.1316 25.52C76.1316 25 75.3416 24.24 74.7616 23.24V26H72.0016V5.51H74.7616V14.12C75.3216 13.14 76.1316 12.38 77.1916 11.84C78.2516 11.28 79.4616 11 80.8216 11C83.1016 11 84.9016 11.68 86.2216 13.04C87.5616 14.4 88.2316 16.26 88.2316 18.62C88.2316 20.14 87.9116 21.48 87.2716 22.64C86.6516 23.8 85.7716 24.7 84.6316 25.34C83.4916 25.98 82.1616 26.3 80.6416 26.3ZM80.1316 25.1C81.7516 25.1 83.0416 24.5 84.0016 23.3C84.9816 22.1 85.4716 20.52 85.4716 18.56C85.4716 16.6 85.0016 15.05 84.0616 13.91C83.1216 12.77 81.8416 12.2 80.2216 12.2C79.1416 12.2 78.1816 12.47 77.3416 13.01C76.5216 13.55 75.8816 14.31 75.4216 15.29C74.9816 16.27 74.7616 17.4 74.7616 18.68C74.7616 20.62 75.2516 22.18 76.2316 23.36C77.2116 24.52 78.5116 25.1 80.1316 25.1ZM93.847 9.47C93.247 9.47 92.757 9.3 92.377 8.96C91.997 8.62 91.807 8.17 91.807 7.61C91.807 7.05 91.997 6.6 92.377 6.26C92.757 5.92 93.247 5.75 93.847 5.75C94.447 5.75 94.937 5.92 95.317 6.26C95.697 6.6 95.887 7.05 95.887 7.61C95.887 8.17 95.697 8.62 95.317 8.96C94.937 9.3 94.447 9.47 93.847 9.47ZM92.467 11.3H95.227V26H92.467V11.3ZM106.788 26.3C104.728 26.3 103.058 25.9 101.778 25.1C100.518 24.3 99.758 23.18 99.498 21.74H101.778C101.938 22.78 102.458 23.6 103.338 24.2C104.238 24.78 105.418 25.07 106.878 25.07C108.258 25.07 109.358 24.79 110.178 24.23C111.018 23.67 111.438 22.93 111.438 22.01C111.438 21.27 111.078 20.69 110.358 20.27C109.638 19.83 108.438 19.47 106.758 19.19C105.078 18.91 103.738 18.6 102.738 18.26C101.758 17.9 101.048 17.47 100.608 16.97C100.168 16.45 99.948 15.81 99.948 15.05C99.948 13.81 100.538 12.83 101.718 12.11C102.918 11.37 104.588 11 106.728 11C108.808 11 110.488 11.4 111.768 12.2C113.068 12.98 113.818 14.08 114.018 15.5H111.738C111.558 14.48 111.038 13.68 110.178 13.1C109.318 12.52 108.228 12.23 106.908 12.23C105.648 12.23 104.628 12.46 103.848 12.92C103.088 13.36 102.708 13.96 102.708 14.72C102.708 15.18 102.838 15.55 103.098 15.83C103.358 16.11 103.828 16.36 104.508 16.58C105.208 16.8 106.238 17.03 107.598 17.27C109.918 17.67 111.598 18.23 112.638 18.95C113.678 19.65 114.198 20.61 114.198 21.83C114.198 23.23 113.538 24.33 112.218 25.13C110.918 25.91 109.108 26.3 106.788 26.3ZM126.029 25.07C127.389 25.07 128.529 24.74 129.449 24.08C130.389 23.42 130.989 22.52 131.249 21.38H133.499C133.119 22.92 132.249 24.13 130.889 25.01C129.529 25.87 127.869 26.3 125.909 26.3C124.269 26.3 122.829 25.99 121.589 25.37C120.369 24.75 119.419 23.87 118.739 22.73C118.079 21.57 117.749 20.23 117.749 18.71C117.749 17.15 118.079 15.79 118.739 14.63C119.399 13.47 120.339 12.58 121.559 11.96C122.799 11.32 124.229 11 125.849 11C128.289 11 130.189 11.66 131.549 12.98C132.929 14.3 133.649 16.16 133.709 18.56H120.509V18.71C120.509 20.69 120.989 22.25 121.949 23.39C122.909 24.51 124.269 25.07 126.029 25.07ZM125.909 12.23C124.409 12.23 123.199 12.68 122.279 13.58C121.359 14.46 120.799 15.71 120.599 17.33H131.099C130.879 15.69 130.319 14.43 129.419 13.55C128.539 12.67 127.369 12.23 125.909 12.23Z" fill="black"/>
<path d="M26.8761 35V56H23.7561V38.36L15.5961 56H14.1261L5.36613 38.12V56H3.50613V35H7.07613L15.4461 52.28L23.4561 35H26.8761ZM39.0782 56.3C37.3782 56.3 35.8882 55.99 34.6082 55.37C33.3282 54.73 32.3382 53.83 31.6382 52.67C30.9382 51.51 30.5882 50.17 30.5882 48.65C30.5882 47.13 30.9382 45.79 31.6382 44.63C32.3382 43.47 33.3282 42.58 34.6082 41.96C35.8882 41.32 37.3782 41 39.0782 41C40.7782 41 42.2682 41.32 43.5482 41.96C44.8482 42.58 45.8482 43.47 46.5482 44.63C47.2482 45.79 47.5982 47.13 47.5982 48.65C47.5982 50.17 47.2482 51.51 46.5482 52.67C45.8482 53.83 44.8482 54.73 43.5482 55.37C42.2682 55.99 40.7782 56.3 39.0782 56.3ZM39.0782 55.07C40.8582 55.07 42.2582 54.5 43.2782 53.36C44.2982 52.22 44.8082 50.65 44.8082 48.65C44.8082 46.65 44.2982 45.08 43.2782 43.94C42.2582 42.8 40.8582 42.23 39.0782 42.23C37.2982 42.23 35.8982 42.8 34.8782 43.94C33.8782 45.08 33.3782 46.65 33.3782 48.65C33.3782 50.65 33.8782 52.22 34.8782 53.36C35.8982 54.5 37.2982 55.07 39.0782 55.07ZM57.8593 56.3C55.7993 56.3 54.1293 55.9 52.8493 55.1C51.5893 54.3 50.8293 53.18 50.5693 51.74H52.8493C53.0093 52.78 53.5293 53.6 54.4093 54.2C55.3093 54.78 56.4893 55.07 57.9493 55.07C59.3293 55.07 60.4293 54.79 61.2493 54.23C62.0893 53.67 62.5093 52.93 62.5093 52.01C62.5093 51.27 62.1493 50.69 61.4293 50.27C60.7093 49.83 59.5093 49.47 57.8293 49.19C56.1493 48.91 54.8093 48.6 53.8093 48.26C52.8293 47.9 52.1193 47.47 51.6793 46.97C51.2393 46.45 51.0193 45.81 51.0193 45.05C51.0193 43.81 51.6093 42.83 52.7893 42.11C53.9893 41.37 55.6593 41 57.7993 41C59.8793 41 61.5593 41.4 62.8393 42.2C64.1393 42.98 64.8893 44.08 65.0893 45.5H62.8093C62.6293 44.48 62.1093 43.68 61.2493 43.1C60.3893 42.52 59.2993 42.23 57.9793 42.23C56.7193 42.23 55.6993 42.46 54.9193 42.92C54.1593 43.36 53.7793 43.96 53.7793 44.72C53.7793 45.18 53.9093 45.55 54.1693 45.83C54.4293 46.11 54.8993 46.36 55.5793 46.58C56.2793 46.8 57.3093 47.03 58.6693 47.27C60.9893 47.67 62.6693 48.23 63.7093 48.95C64.7493 49.65 65.2693 50.61 65.2693 51.83C65.2693 53.23 64.6093 54.33 63.2893 55.13C61.9893 55.91 60.1793 56.3 57.8593 56.3ZM68.8346 35.51H71.5946V44.12C72.1146 43.14 72.8846 42.38 73.9046 41.84C74.9446 41.28 76.1146 41 77.4146 41C79.3346 41 80.8246 41.48 81.8846 42.44C82.9646 43.38 83.5046 44.7 83.5046 46.4V56H80.7446V46.13C80.7446 44.89 80.4046 43.93 79.7246 43.25C79.0446 42.57 78.0746 42.23 76.8146 42.23C75.2346 42.23 73.9646 42.75 73.0046 43.79C72.0646 44.83 71.5946 46.2 71.5946 47.9V56H68.8346V35.51ZM95.2403 56.3C93.5403 56.3 92.0503 55.99 90.7703 55.37C89.4903 54.73 88.5003 53.83 87.8003 52.67C87.1003 51.51 86.7503 50.17 86.7503 48.65C86.7503 47.13 87.1003 45.79 87.8003 44.63C88.5003 43.47 89.4903 42.58 90.7703 41.96C92.0503 41.32 93.5403 41 95.2403 41C96.9403 41 98.4303 41.32 99.7103 41.96C101.01 42.58 102.01 43.47 102.71 44.63C103.41 45.79 103.76 47.13 103.76 48.65C103.76 50.17 103.41 51.51 102.71 52.67C102.01 53.83 101.01 54.73 99.7103 55.37C98.4303 55.99 96.9403 56.3 95.2403 56.3ZM95.2403 55.07C97.0203 55.07 98.4203 54.5 99.4403 53.36C100.46 52.22 100.97 50.65 100.97 48.65C100.97 46.65 100.46 45.08 99.4403 43.94C98.4203 42.8 97.0203 42.23 95.2403 42.23C93.4603 42.23 92.0603 42.8 91.0403 43.94C90.0403 45.08 89.5403 46.65 89.5403 48.65C89.5403 50.65 90.0403 52.22 91.0403 53.36C92.0603 54.5 93.4603 55.07 95.2403 55.07ZM114.981 55.07C116.341 55.07 117.481 54.74 118.401 54.08C119.341 53.42 119.941 52.52 120.201 51.38H122.451C122.071 52.92 121.201 54.13 119.841 55.01C118.481 55.87 116.821 56.3 114.861 56.3C113.221 56.3 111.781 55.99 110.541 55.37C109.321 54.75 108.371 53.87 107.691 52.73C107.031 51.57 106.701 50.23 106.701 48.71C106.701 47.15 107.031 45.79 107.691 44.63C108.351 43.47 109.291 42.58 110.511 41.96C111.751 41.32 113.181 41 114.801 41C117.241 41 119.141 41.66 120.501 42.98C121.881 44.3 122.601 46.16 122.661 48.56H109.461V48.71C109.461 50.69 109.941 52.25 110.901 53.39C111.861 54.51 113.221 55.07 114.981 55.07ZM114.861 42.23C113.361 42.23 112.151 42.68 111.231 43.58C110.311 44.46 109.751 45.71 109.551 47.33H120.051C119.831 45.69 119.271 44.43 118.371 43.55C117.491 42.67 116.321 42.23 114.861 42.23ZM133.475 56.3C131.415 56.3 129.745 55.9 128.465 55.1C127.205 54.3 126.445 53.18 126.185 51.74H128.465C128.625 52.78 129.145 53.6 130.025 54.2C130.925 54.78 132.105 55.07 133.565 55.07C134.945 55.07 136.045 54.79 136.865 54.23C137.705 53.67 138.125 52.93 138.125 52.01C138.125 51.27 137.765 50.69 137.045 50.27C136.325 49.83 135.125 49.47 133.445 49.19C131.765 48.91 130.425 48.6 129.425 48.26C128.445 47.9 127.735 47.47 127.295 46.97C126.855 46.45 126.635 45.81 126.635 45.05C126.635 43.81 127.225 42.83 128.405 42.11C129.605 41.37 131.275 41 133.415 41C135.495 41 137.175 41.4 138.455 42.2C139.755 42.98 140.505 44.08 140.705 45.5H138.425C138.245 44.48 137.725 43.68 136.865 43.1C136.005 42.52 134.915 42.23 133.595 42.23C132.335 42.23 131.315 42.46 130.535 42.92C129.775 43.36 129.395 43.96 129.395 44.72C129.395 45.18 129.525 45.55 129.785 45.83C130.045 46.11 130.515 46.36 131.195 46.58C131.895 46.8 132.925 47.03 134.285 47.27C136.605 47.67 138.285 48.23 139.325 48.95C140.365 49.65 140.885 50.61 140.885 51.83C140.885 53.23 140.225 54.33 138.905 55.13C137.605 55.91 135.795 56.3 133.475 56.3ZM144.45 35.51H147.21V44.12C147.73 43.14 148.5 42.38 149.52 41.84C150.56 41.28 151.73 41 153.03 41C154.95 41 156.44 41.48 157.5 42.44C158.58 43.38 159.12 44.7 159.12 46.4V56H156.36V46.13C156.36 44.89 156.02 43.93 155.34 43.25C154.66 42.57 153.69 42.23 152.43 42.23C150.85 42.23 149.58 42.75 148.62 43.79C147.68 44.83 147.21 46.2 147.21 47.9V56H144.45V35.51ZM170.856 56.3C169.156 56.3 167.666 55.99 166.386 55.37C165.106 54.73 164.116 53.83 163.416 52.67C162.716 51.51 162.366 50.17 162.366 48.65C162.366 47.13 162.716 45.79 163.416 44.63C164.116 43.47 165.106 42.58 166.386 41.96C167.666 41.32 169.156 41 170.856 41C172.556 41 174.046 41.32 175.326 41.96C176.626 42.58 177.626 43.47 178.326 44.63C179.026 45.79 179.376 47.13 179.376 48.65C179.376 50.17 179.026 51.51 178.326 52.67C177.626 53.83 176.626 54.73 175.326 55.37C174.046 55.99 172.556 56.3 170.856 56.3ZM170.856 55.07C172.636 55.07 174.036 54.5 175.056 53.36C176.076 52.22 176.586 50.65 176.586 48.65C176.586 46.65 176.076 45.08 175.056 43.94C174.036 42.8 172.636 42.23 170.856 42.23C169.076 42.23 167.676 42.8 166.656 43.94C165.656 45.08 165.156 46.65 165.156 48.65C165.156 50.65 165.656 52.22 166.656 53.36C167.676 54.5 169.076 55.07 170.856 55.07ZM190.597 55.07C191.957 55.07 193.097 54.74 194.017 54.08C194.957 53.42 195.557 52.52 195.817 51.38H198.067C197.687 52.92 196.817 54.13 195.457 55.01C194.097 55.87 192.437 56.3 190.477 56.3C188.837 56.3 187.397 55.99 186.157 55.37C184.937 54.75 183.987 53.87 183.307 52.73C182.647 51.57 182.317 50.23 182.317 48.71C182.317 47.15 182.647 45.79 183.307 44.63C183.967 43.47 184.907 42.58 186.127 41.96C187.367 41.32 188.797 41 190.417 41C192.857 41 194.757 41.66 196.117 42.98C197.497 44.3 198.217 46.16 198.277 48.56H185.077V48.71C185.077 50.69 185.557 52.25 186.517 53.39C187.477 54.51 188.837 55.07 190.597 55.07ZM190.477 42.23C188.977 42.23 187.767 42.68 186.847 43.58C185.927 44.46 185.367 45.71 185.167 47.33H195.667C195.447 45.69 194.887 44.43 193.987 43.55C193.107 42.67 191.937 42.23 190.477 42.23Z" fill="black"/>
</g>
<defs>
<clipPath id="clip0_309_4465">
<rect width="200" height="70" fill="white"/>
</clipPath>
</defs>
</svg>
